<?xml version="1.0" standalone="no"?>
<!DOCTYPE svg PUBLIC "-//W3C//DTD SVG 20010904//EN"
 "http://www.w3.org/TR/2001/REC-SVG-20010904/DTD/svg10.dtd">
<svg version="1.0" xmlns="http://www.w3.org/2000/svg"
 width="400.000000pt" height="400.000000pt" viewBox="0 0 400.000000 400.000000"
 preserveAspectRatio="xMidYMid meet">

<g transform="translate(0.000000,400.000000) scale(0.100000,-0.100000)"
fill="#000000" stroke="none">
<path d="M1810 3899 c-258 -30 -496 -110 -705 -239 -309 -189 -564 -506 -675
-838 -58 -175 -74 -278 -75 -489 0 -177 4 -217 22 -200 3 4 7 91 8 194 2 194
13 279 57 428 143 492 560 903 1065 1050 278 81 546 92 827 34 313 -65 614
-232 836 -465 92 -96 195 -235 238 -320 18 -35 38 -54 59 -54 12 0 -85 165
-145 245 -163 219 -398 407 -640 514 -279 123 -588 172 -872 140z"/>
<path d="M1509 3687 c-52 -35 -91 -98 -97 -156 -4 -44 -1 -53 23 -76 22 -23
32 -26 63 -22 41 7 82 46 82 78 0 28 -12 23 -39 -16 -44 -65 -91 -55 -91 20 0
32 8 55 33 91 30 45 91 93 103 81 3 -3 0 -22 -7 -41 -10 -27 -10 -39 -2 -47
17 -17 31 -3 39 37 13 67 -43 94 -107 51z"/>
<path d="M1662 3596 c-75 -41 -83 -166 -11 -166 24 0 79 52 79 73 0 8 7 18 16
21 12 5 15 2 9 -11 -29 -77 -7 -105 29 -36 13 26 39 62 56 78 36 34 36 32 -3
-47 -27 -53 -29 -78 -7 -78 5 0 19 19 31 43 22 44 67 97 82 97 4 0 -1 -13 -13
-30 -12 -16 -24 -45 -27 -64 -5 -32 -3 -36 23 -42 18 -5 37 -2 54 8 23 13 29
13 45 2 10 -8 31 -14 46 -14 31 0 89 44 89 68 0 12 -9 8 -32 -15 -43 -40 -65
-47 -77 -25 -13 25 -2 40 33 44 38 4 75 51 60 75 -35 55 -84 36 -129 -50 -16
-31 -38 -64 -47 -74 -16 -16 -18 -15 -24 1 -4 12 4 38 22 72 23 42 26 56 17
65 -10 10 -18 10 -38 1 -22 -10 -29 -9 -42 3 -14 14 -18 14 -39 0 -29 -19 -34
-19 -34 0 0 24 -13 18 -43 -20 -29 -36 -47 -45 -47 -22 0 14 -36 57 -48 57 -4
-1 -17 -6 -30 -14z m45 -38 c-3 -8 -6 -5 -6 6 -1 11 2 17 5 13 3 -3 4 -12 1
-19z m404 4 c-13 -24 -40 -46 -47 -39 -9 9 27 57 43 57 10 0 11 -5 4 -18z
m-423 -14 c7 -7 12 -18 12 -24 0 -15 -48 -74 -61 -74 -14 0 -11 39 7 76 18 37
24 40 42 22z"/>
<path d="M2291 3584 c-17 -14 -36 -43 -42 -64 -10 -33 -9 -43 5 -65 10 -16 26
-25 42 -25 26 0 69 38 79 71 4 11 13 19 20 19 12 0 12 -5 0 -33 -8 -20 -10
-39 -5 -47 11 -17 12 -16 38 36 24 47 69 104 83 104 5 0 -2 -23 -17 -51 -33
-65 -27 -99 17 -99 43 0 98 57 71 74 -5 3 -16 -8 -26 -25 -18 -31 -46 -39 -46
-14 0 8 12 37 27 64 23 41 25 51 14 65 -12 14 -16 14 -41 1 -25 -13 -29 -13
-34 2 -5 13 -13 9 -42 -21 -34 -35 -54 -39 -54 -12 0 15 -32 46 -48 46 -6 0
-24 -12 -41 -26z m69 -20 c0 -8 -5 -12 -10 -9 -6 4 -8 11 -5 16 9 14 15 11 15
-7z m-23 -23 c10 -16 8 -25 -10 -52 -29 -43 -47 -48 -47 -14 0 28 25 85 38 85
4 0 13 -9 19 -19z"/>
<path d="M1953 3238 c-21 -24 -53 -64 -71 -90 -18 -27 -38 -48 -45 -48 -7 0
-13 -19 -14 -50 -3 -59 7 -63 30 -15 15 31 21 35 57 35 38 0 40 -2 40 -30 0
-16 7 -33 16 -38 13 -7 14 -13 5 -30 -13 -25 -14 -62 -2 -62 5 0 21 25 35 55
26 56 34 63 53 44 6 -6 30 -11 53 -11 33 1 41 -2 36 -15 -30 -76 -6 -93 30
-21 33 66 30 63 49 48 34 -28 133 -4 149 37 13 32 -6 31 -36 -3 -38 -43 -46
-39 -18 9 14 24 20 49 18 74 -3 35 -5 38 -33 38 -16 0 -34 5 -38 10 -5 6 -13
3 -20 -8 -76 -117 -94 -142 -105 -145 -9 -3 -7 9 8 38 12 24 20 55 18 73 -3
28 -7 32 -33 33 -17 0 -36 3 -42 7 -14 9 -23 -3 -72 -93 -37 -69 -41 -72 -41
-42 0 22 5 32 15 32 12 0 13 4 5 19 -7 14 -5 39 7 89 16 66 14 102 -5 102 -5
0 -27 -19 -49 -42z m14 -70 c-5 -24 -11 -49 -13 -55 -2 -7 -18 -13 -35 -13
-23 0 -29 3 -22 13 38 50 75 97 77 97 2 0 -1 -19 -7 -42z m163 -60 c-17 -42
-49 -88 -61 -88 -5 0 -9 13 -9 28 0 37 57 119 72 104 8 -8 7 -21 -2 -44z m161
-25 c-26 -52 -48 -71 -57 -49 -8 22 12 69 45 103 25 27 26 27 29 6 2 -12 -6
-39 -17 -60z"/>
<path d="M1708 3225 c-6 -14 -15 -26 -20 -26 -4 -1 -12 -3 -18 -4 -5 -1 -13
-3 -17 -4 -5 -1 -1 -5 7 -10 26 -17 -39 -134 -90 -161 -20 -11 -25 -10 -36 5
-18 25 -7 43 28 47 39 4 78 50 62 75 -32 52 -82 36 -124 -40 -55 -99 -95 -118
-48 -23 38 78 35 93 -23 90 -37 -2 -49 -9 -82 -43 -34 -37 -38 -46 -35 -84 3
-39 5 -42 31 -42 35 1 34 -6 -3 -27 -19 -11 -30 -25 -30 -39 0 -21 0 -21 20 2
24 29 26 19 4 -22 -8 -17 -13 -33 -10 -36 13 -13 37 10 60 55 16 32 38 57 62
71 33 20 38 20 54 6 22 -20 69 -19 98 1 21 15 25 15 41 0 10 -9 24 -16 33 -16
25 0 68 40 68 63 0 19 -4 17 -31 -16 -56 -68 -67 -18 -17 74 23 41 39 59 52
59 16 0 17 3 8 12 -7 7 -12 22 -12 35 0 30 -18 29 -32 -2z m-278 -88 c0 -16
-54 -102 -70 -112 -35 -22 -22 37 20 88 32 38 50 47 50 24z m164 1 c-13 -23
-37 -48 -46 -48 -14 0 -9 15 12 38 22 24 46 30 34 10z"/>
<path d="M2536 3158 c-31 -48 -57 -119 -51 -139 6 -17 13 -20 39 -15 l31 5
-25 -17 c-46 -31 -80 -70 -80 -91 0 -32 17 -25 35 13 9 19 23 37 32 40 12 5
11 -1 -5 -28 -11 -19 -18 -37 -15 -40 17 -16 36 0 63 53 16 33 38 62 50 66 21
7 63 55 55 63 -3 3 -19 -7 -35 -23 -37 -35 -38 -19 -5 41 24 44 33 94 17 94
-5 0 -21 -24 -37 -52 -37 -69 -64 -108 -76 -108 -16 0 -9 34 16 79 14 23 25
49 25 56 0 25 -19 26 -34 3z"/>
<path d="M2393 3123 c-13 -2 -23 -8 -23 -13 0 -15 39 -22 82 -15 39 7 40 8 23
21 -19 14 -38 15 -82 7z"/>
<path d="M3367 2932 c-11 -12 -17 -36 -17 -65 0 -44 -2 -47 -26 -47 -15 0 -32
-7 -38 -15 -10 -13 -25 -12 -123 4 l-113 18 -1 -51 c-1 -28 0 -99 1 -157 1
-90 -4 -145 -25 -254 -4 -17 -12 -21 -42 -21 -21 0 -46 -4 -55 -8 -14 -6 -18
-4 -18 12 0 12 -9 23 -20 27 -30 10 -25 20 28 54 105 67 132 126 100 216 -19
54 -56 91 -101 101 -21 4 -36 -1 -62 -21 -53 -40 -105 -96 -125 -135 -22 -42
-54 -72 -143 -133 -67 -47 -91 -55 -101 -38 -3 5 -35 17 -71 26 -36 10 -65 20
-65 21 0 2 15 23 33 47 34 45 101 182 95 195 -2 4 -14 2 -28 -5 -18 -9 -20
-13 -7 -13 9 0 17 -2 17 -5 0 -19 -77 -152 -106 -184 -37 -42 -36 -44 11 -55
17 -4 58 -19 92 -32 l62 -25 73 52 c100 72 115 86 154 146 37 59 95 117 137
139 24 13 31 13 55 0 37 -19 47 -32 65 -85 17 -49 12 -107 -12 -135 -9 -10
-39 -34 -66 -51 -28 -18 -57 -41 -65 -50 -12 -15 -11 -19 9 -34 19 -15 22 -23
16 -50 l-7 -32 50 28 c49 27 51 27 70 10 20 -18 21 -18 30 0 22 45 37 175 35
317 -1 82 0 153 2 156 5 8 183 -15 192 -24 3 -3 -33 -2 -81 1 -86 6 -86 6 -87
-18 0 -13 -2 -33 -4 -44 -1 -11 -6 -81 -9 -155 -3 -74 -11 -197 -18 -272 l-12
-138 -28 0 c-25 0 -27 2 -18 19 16 31 12 86 -8 104 -32 29 -61 20 -114 -34
-49 -51 -80 -60 -86 -26 -2 10 10 33 27 53 34 38 38 53 19 72 -29 29 -123 -1
-147 -47 -18 -32 3 -32 34 0 32 35 68 51 90 43 24 -9 18 -38 -15 -69 -17 -16
-30 -39 -30 -52 0 -50 88 -46 114 6 16 31 55 55 81 49 27 -5 37 -55 19 -89 -8
-16 -20 -29 -26 -29 -9 0 -9 3 0 12 17 17 15 65 -3 72 -8 3 -26 1 -39 -4 -41
-15 -45 -67 -4 -57 12 3 18 1 15 -6 -2 -6 -30 -16 -63 -22 -32 -6 -68 -16 -80
-23 -19 -10 -23 -7 -37 24 -21 42 -102 131 -128 139 -10 4 -19 9 -19 13 0 4
36 36 80 72 44 36 86 77 93 93 16 37 34 33 28 -5 -2 -12 17 -9 50 7 17 10 27
20 23 27 -5 7 -2 9 8 5 10 -3 25 5 39 21 21 23 21 24 2 9 -17 -15 -25 -16 -43
-7 -18 9 -25 8 -41 -6 -32 -29 -35 -6 -3 27 l29 30 -28 -14 c-15 -8 -34 -23
-42 -33 -8 -11 -15 -14 -15 -7 0 6 7 19 16 27 8 9 12 21 8 27 -4 8 -3 9 5 5 6
-4 18 -2 26 4 8 7 15 9 15 5 0 -5 9 0 20 10 11 10 23 15 27 11 4 -4 1 -11 -7
-16 -19 -11 -6 -24 16 -16 10 4 14 13 11 25 -3 11 1 22 9 25 9 3 11 0 7 -12
-5 -14 -3 -15 7 -5 11 10 11 15 0 28 -7 8 -9 15 -4 15 5 0 1 5 -9 11 -13 8
-25 5 -48 -12 -16 -11 -28 -24 -25 -27 3 -3 14 2 23 10 29 25 43 31 37 15 -6
-17 -65 -45 -82 -40 -6 3 -9 10 -5 16 4 7 -1 6 -10 -2 -10 -8 -15 -16 -12 -19
2 -3 -9 -20 -25 -39 -17 -18 -30 -37 -30 -42 0 -4 -21 -23 -47 -42 -27 -18
-91 -69 -145 -111 -60 -49 -105 -78 -120 -78 -27 0 -74 -43 -64 -58 5 -8 -100
-104 -266 -243 l-44 -37 -62 59 c-76 72 -127 99 -185 99 -69 0 -92 -24 -91
-94 2 -53 1 -56 -21 -50 -29 7 -82 -20 -90 -45 -9 -29 18 -84 63 -129 l40 -40
-26 -7 c-66 -17 -71 -64 -12 -126 22 -23 39 -45 39 -48 -1 -3 -45 -46 -98 -96
-179 -166 -312 -297 -307 -302 12 -12 83 23 138 69 l60 50 41 -31 c23 -17 71
-49 107 -71 l65 -40 -111 7 c-74 4 -117 2 -130 -5 -16 -10 -13 -12 21 -12 572
-11 556 -12 675 9 96 17 134 30 228 76 l114 55 61 -51 c34 -28 72 -55 86 -60
33 -13 52 -4 21 9 l-25 11 25 0 c29 0 74 -34 65 -49 -3 -5 -35 -10 -71 -10
-36 0 -63 -4 -60 -8 2 -4 -27 -6 -66 -4 -51 3 -69 1 -64 -7 4 -6 16 -11 27
-11 10 0 19 -4 19 -10 0 -6 36 -9 93 -8 74 1 82 2 42 7 -45 6 -41 7 50 14 55
4 137 8 182 8 45 0 104 4 130 9 42 7 34 8 -57 10 -93 2 -99 3 -52 10 57 9 105
34 99 53 -2 7 -17 19 -33 27 -21 10 -29 21 -26 34 4 17 -1 19 -54 13 l-57 -6
21 21 c18 19 25 20 47 10 36 -17 70 -15 86 4 11 14 10 19 -10 35 -13 11 -31
19 -40 20 -9 0 6 8 34 17 63 21 72 48 21 58 -20 3 -46 4 -59 1 -18 -5 -17 -2
11 21 35 30 43 62 14 62 -10 0 -57 -23 -103 -52 -121 -74 -144 -81 -184 -54
l-32 21 25 39 c39 62 111 216 118 250 4 23 13 35 33 43 44 16 108 104 122 168
11 47 15 55 36 55 l23 0 0 -182 c0 -101 4 -188 8 -194 12 -18 44 -31 95 -38
26 -4 47 -10 47 -13 0 -9 -46 -87 -91 -155 -21 -32 -33 -58 -27 -58 5 0 8 -6
5 -14 -6 -16 36 -42 52 -32 6 4 11 14 11 22 0 8 4 14 8 14 5 0 36 38 69 85 61
86 73 91 73 29 0 -30 22 -31 57 -4 14 11 21 20 16 20 -6 0 -8 11 -6 24 4 19
-1 26 -24 35 l-28 11 34 -5 c18 -3 39 -5 46 -5 14 0 40 -95 50 -185 8 -72 34
-168 47 -176 14 -9 49 1 42 12 -3 5 -14 9 -24 9 -19 0 -26 18 -35 92 -7 51
-32 188 -41 216 -7 23 9 30 32 14 16 -10 51 -142 60 -220 6 -58 14 -75 39 -78
37 -4 39 -6 18 -14 -13 -5 -23 -15 -23 -21 0 -7 8 -6 23 4 12 8 20 21 18 29
-19 67 -70 283 -67 286 9 8 92 -21 104 -36 11 -15 14 -15 23 -2 5 8 8 25 6 38
-3 12 -1 25 3 27 4 3 13 -48 19 -113 17 -173 18 -182 10 -182 -15 0 -39 45
-39 73 0 15 -5 49 -11 75 -15 65 -19 76 -25 70 -2 -3 3 -49 13 -103 15 -84 21
-99 43 -113 14 -9 28 -21 32 -27 5 -6 8 -5 8 4 0 8 7 11 20 8 11 -3 22 -2 24
2 2 3 -4 74 -15 156 -17 128 -30 188 -67 310 -5 19 -5 19 22 2 15 -10 34 -16
41 -13 54 21 -143 232 -336 359 -59 40 -172 87 -257 107 l-52 12 5 97 c3 53
10 159 15 236 5 77 10 173 11 213 1 40 5 75 9 77 16 10 195 -18 207 -32 14
-18 191 -36 210 -21 7 6 40 8 75 5 l63 -6 -48 11 c-28 6 -52 18 -58 29 -6 11
-25 21 -49 25 -33 5 -38 9 -29 20 15 18 5 94 -13 105 -7 5 -22 9 -34 9 -27 0
-51 -69 -34 -99 14 -27 14 -27 -29 -23 -21 2 -42 -1 -45 -7 -4 -6 -16 -11 -27
-11 -17 0 -18 3 -7 20 7 12 22 20 33 19 40 -3 43 0 38 45 -4 35 -1 48 16 65
26 26 66 27 109 1 23 -14 32 -27 32 -47 0 -48 11 -71 36 -77 13 -4 24 -13 24
-20 0 -10 23 -18 70 -27 39 -7 73 -15 75 -18 6 -10 -13 -611 -25 -774 -10
-147 -10 -147 15 -197 33 -65 45 -140 22 -140 -26 0 -26 -11 -7 -110 28 -144
53 -337 47 -355 -9 -22 -37 -19 -91 10 -26 14 -52 23 -57 20 -5 -4 -9 -22 -9
-41 0 -19 -1 -34 -3 -34 -15 0 -176 -22 -189 -26 -11 -3 -23 5 -35 22 -14 22
-19 56 -23 156 -4 74 -11 133 -17 139 -9 9 -21 6 -49 -11 -29 -18 -40 -21 -54
-12 -25 15 -52 -13 -29 -30 11 -8 11 -9 -4 -4 -12 4 -24 -6 -43 -34 -28 -41
-74 -63 -114 -53 -24 6 -26 -9 -4 -42 9 -13 13 -29 9 -34 -7 -12 36 -25 62
-18 14 4 13 5 -5 6 -29 1 -26 33 3 43 12 5 6 6 -17 4 -24 -3 -41 0 -49 10 -9
12 -6 14 20 14 18 0 41 5 51 10 13 7 21 7 25 0 10 -16 26 0 20 19 -3 11 3 28
14 42 18 21 20 22 21 5 0 -15 3 -16 15 -6 8 7 15 21 15 31 0 11 5 19 11 19 5
0 7 -5 3 -11 -3 -6 12 1 35 15 22 14 45 26 51 26 6 0 10 -35 10 -89 0 -109 15
-190 39 -214 17 -18 25 -18 127 -5 l108 13 10 35 c12 46 13 46 36 25 11 -10
41 -20 68 -23 40 -3 50 -1 55 13 7 16 -17 194 -48 359 -19 98 -19 96 5 96 30
0 26 60 -10 145 -26 60 -30 82 -30 160 0 49 5 130 10 180 5 49 12 219 16 376
l7 286 -69 12 c-46 9 -72 18 -82 32 -7 10 -21 19 -31 19 -14 0 -20 11 -25 49
-5 37 -13 55 -33 70 -34 28 -113 29 -136 3z m88 -99 c-1 -53 -19 -67 -36 -30
-15 33 -4 77 19 77 14 0 17 -8 17 -47z m-55 -82 c0 -10 3 -12 8 -5 4 6 28 11
54 13 42 2 46 0 41 -19 -5 -18 -11 -19 -77 -14 -89 7 -97 10 -90 28 8 21 64
18 64 -3z m145 -11 c3 -5 -1 -10 -9 -10 -9 0 -16 5 -16 10 0 6 4 10 9 10 6 0
13 -4 16 -10z m-695 -245 c-13 -14 -28 -25 -33 -25 -12 0 34 47 47 49 5 1 -1
-10 -14 -24z m-205 -114 c3 -6 -20 -27 -50 -48 -67 -46 -268 -204 -310 -244
-43 -40 -199 -158 -204 -154 -2 2 12 17 30 32 18 15 65 55 102 87 38 32 97 81
130 108 34 27 78 64 97 81 49 45 182 147 191 147 4 0 10 -4 14 -9z m-14 -127
c55 -40 109 -111 109 -143 0 -34 -13 -24 -54 40 -21 33 -59 74 -83 90 -24 17
-41 34 -38 40 9 14 13 12 66 -27z m-206 6 c-10 -11 -23 -20 -29 -20 -6 1 0 10
13 20 30 26 39 26 16 0z m164 -30 c23 -17 61 -58 86 -91 36 -49 45 -69 45
-102 0 -22 6 -48 14 -56 12 -14 12 -22 1 -56 -27 -77 -90 -104 -168 -71 -69
28 -168 184 -170 265 -1 33 4 44 28 63 38 31 109 78 116 78 3 0 25 -14 48 -30z
m-166 -245 c33 -60 87 -119 129 -141 17 -9 52 -17 79 -18 38 -1 53 4 73 23 29
27 56 75 56 98 0 8 5 13 12 11 7 -3 37 1 68 9 87 20 110 18 110 -12 0 -28 -6
-31 -25 -11 -21 20 -64 8 -71 -20 -7 -29 2 -58 16 -49 5 3 10 1 10 -4 0 -22
30 -10 44 17 8 15 15 22 16 16 0 -15 -50 -82 -89 -118 l-31 -30 0 46 c0 67
-11 138 -22 138 -5 0 -6 -10 -3 -21 5 -14 3 -19 -4 -15 -5 4 -17 -7 -26 -24
-20 -38 -87 -88 -130 -96 -41 -7 -67 0 -104 32 l-30 25 -11 -38 c-18 -57 -24
-254 -11 -310 17 -71 52 -163 62 -163 20 0 122 154 173 260 57 119 75 178 76
243 0 20 5 37 10 37 15 0 12 -64 -6 -134 -19 -77 -91 -227 -139 -289 -20 -26
-33 -52 -29 -58 5 -8 9 -8 14 1 6 10 15 8 38 -6 32 -18 35 -41 4 -26 -9 5 -24
8 -32 7 -8 -1 -22 -3 -31 -3 -9 -1 -47 -23 -84 -48 -88 -60 -211 -117 -305
-140 -61 -15 -113 -19 -276 -19 l-202 0 -73 49 c-41 27 -91 60 -111 74 l-37
24 127 124 127 124 50 -7 c54 -8 186 -8 219 1 31 8 65 66 83 139 l16 66 -31
79 c-37 90 -37 93 -17 86 10 -4 44 21 98 73 45 44 102 96 127 116 l44 38 11
-53 c6 -29 23 -75 38 -103z m739 112 c77 -24 194 -84 278 -140 90 -61 275
-256 258 -272 -2 -2 -31 16 -63 41 -152 115 -308 197 -457 241 -78 23 -111 27
-203 27 -60 -1 -127 -6 -148 -12 -51 -14 -77 1 -77 44 0 23 7 36 26 49 14 9
23 20 19 23 -4 4 10 13 32 19 62 20 242 9 335 -20z m-1251 -35 c24 -16 64 -50
88 -76 43 -48 106 -168 118 -226 8 -43 -15 -140 -41 -173 -20 -25 -29 -28 -98
-31 -102 -4 -181 9 -234 40 -85 50 -107 108 -49 127 35 12 150 -5 197 -29 16
-8 32 -14 34 -11 9 9 -9 37 -25 37 -41 1 -177 52 -204 77 -29 28 -72 111 -62
121 3 3 5 -1 5 -9 0 -8 6 -4 16 9 36 51 141 2 244 -115 22 -25 43 -44 45 -41
13 12 -21 57 -82 108 -119 100 -123 105 -123 145 0 61 13 75 73 75 41 0 63 -6
98 -28z m1290 -122 c48 -16 125 -48 169 -70 68 -34 80 -43 70 -56 -7 -7 -23
-14 -36 -14 -35 0 -30 -26 6 -33 26 -6 30 -11 30 -41 0 -19 -4 -38 -10 -41 -6
-4 -10 11 -10 36 0 56 -19 39 -22 -19 -1 -23 -5 -42 -9 -42 -5 0 -8 -16 -7
-35 1 -19 6 -35 12 -35 5 0 4 -6 -3 -12 -11 -10 -14 -10 -18 0 -6 16 -23 15
-23 -2 0 -17 72 -28 82 -12 4 6 6 23 4 39 -2 15 0 30 5 33 5 3 9 27 9 53 0 40
14 105 26 120 2 2 19 -7 39 -19 36 -22 38 -46 4 -37 -14 4 -24 -3 -34 -23 -22
-42 -19 -49 28 -70 30 -14 36 -20 20 -20 -34 0 -72 -21 -79 -43 -4 -12 1 -30
14 -46 42 -57 142 -20 125 48 -3 14 -12 30 -20 34 -12 7 -11 12 7 24 17 12 21
22 16 44 -4 22 -2 27 9 22 12 -4 15 -29 15 -125 0 -109 -2 -119 -17 -114 -46
14 -378 76 -387 72 -6 -2 -3 -5 7 -5 15 -1 11 -10 -21 -58 -21 -32 -51 -79
-66 -105 -21 -37 -33 -48 -52 -48 -24 0 -24 1 -9 23 9 12 40 63 69 112 l53 90
-76 15 -76 15 -6 60 c-6 63 -2 227 7 283 4 28 9 32 35 32 17 0 71 -13 120 -30z
m-441 -193 c-14 -66 -107 -250 -166 -328 -51 -67 -51 -67 -83 21 -27 75 -31
300 -6 340 3 4 25 1 50 -7 58 -20 101 -11 162 31 43 30 48 31 51 14 2 -10 -1
-42 -8 -71z m810 -16 c0 -9 -59 -1 -64 8 -3 4 11 5 30 3 19 -2 34 -7 34 -11z
m-30 -146 c0 -8 5 -15 10 -15 6 0 10 -4 10 -10 0 -14 -23 -12 -45 3 -10 8 -15
19 -11 25 10 17 36 15 36 -3z m-555 -105 c-6 -10 -76 -47 -119 -63 -28 -11 -9
9 41 42 45 30 91 42 78 21z m-1385 -53 c0 -2 -12 -14 -27 -28 l-28 -24 24 28
c23 25 31 32 31 24z m40 0 c0 -2 -12 -14 -27 -28 l-28 -24 24 28 c23 25 31 32
31 24z m1370 -26 l25 -7 -25 -6 c-14 -4 -46 -10 -72 -13 -46 -7 -67 -25 -29
-25 27 0 91 -29 91 -41 0 -7 -17 -8 -47 -3 -56 8 -65 12 -58 25 4 5 0 9 -7 10
-7 0 -21 2 -30 4 -10 2 -16 -2 -15 -8 3 -15 -6 -15 -70 3 -52 14 -70 29 -35
31 62 3 115 11 149 23 41 16 84 18 123 7z m705 -168 c-11 -32 -21 -7 -22 55
l-1 67 14 -55 c7 -30 12 -61 9 -67z m-942 92 c20 -4 37 -10 37 -14 0 -4 -22
-28 -48 -54 -48 -47 -49 -47 -66 -28 -10 11 -43 37 -72 57 -35 24 -50 40 -42
45 12 8 129 4 191 -6z m332 -5 c8 -13 -5 -13 -25 0 -13 8 -13 10 2 10 9 0 20
-4 23 -10z m424 -40 c0 -9 -4 -8 -9 5 -5 11 -9 27 -9 35 0 9 4 8 9 -5 5 -11 9
-27 9 -35z m-911 -26 c25 -24 29 -31 14 -27 -29 7 -93 63 -86 74 7 11 22 1 72
-47z m242 51 c0 -32 -67 -94 -93 -87 -5 1 -6 -2 -2 -8 10 -16 38 -12 89 14 57
29 96 40 96 27 0 -14 -25 -31 -59 -37 -17 -4 -34 -10 -37 -15 -5 -9 70 -4 117
7 31 7 45 -8 24 -26 -14 -12 -176 -18 -232 -9 -42 6 -36 30 21 86 48 46 76 64
76 48z"/>
<path d="M2508 2191 c10 -6 8 -10 -11 -15 -61 -15 -35 -206 37 -266 9 -7 16
-9 16 -6 0 4 15 -1 33 -10 63 -33 64 -33 81 -15 9 10 16 23 16 30 0 7 5 9 12
5 8 -5 9 0 5 16 -3 13 -2 29 4 36 14 16 -5 85 -38 142 -19 32 -28 40 -34 30
-7 -10 -9 -10 -9 0 0 16 -37 52 -52 52 -7 -1 -2 -7 12 -15 30 -17 21 -20 -15
-3 -14 6 -25 15 -25 20 0 4 -10 8 -22 8 -17 0 -19 -3 -10 -9z m42 -67 c0 -9
-5 -14 -12 -12 -18 6 -21 28 -4 28 9 0 16 -7 16 -16z m40 -68 c14 -18 10 -58
-7 -63 -6 -2 -19 7 -29 21 -13 21 -14 29 -4 41 16 19 24 19 40 1z m-46 -132
c5 -14 4 -15 -9 -4 -17 14 -19 20 -6 20 5 0 12 -7 15 -16z"/>
<path d="M2572 1874 c8 -9 23 -14 33 -12 12 2 7 7 -16 15 -30 12 -32 11 -17
-3z"/>
<path d="M3184 1815 c-7 -17 12 -45 30 -45 24 0 38 18 31 39 -8 25 -52 29 -61
6z m49 -10 c1 -5 -6 -11 -15 -13 -11 -2 -18 3 -18 13 0 17 30 18 33 0z"/>
<path d="M3066 1758 c-15 -17 -16 -22 -5 -29 12 -8 12 -10 0 -18 -12 -8 -13
-14 -3 -35 14 -31 32 -34 32 -5 0 12 4 17 11 14 6 -4 8 -13 5 -21 -3 -8 -1
-14 4 -14 6 0 10 4 10 9 0 5 7 17 17 26 13 14 14 18 3 25 -10 6 -11 12 -2 22
7 9 8 18 1 28 -8 11 -12 12 -16 3 -7 -18 -23 -16 -23 2 0 20 -11 18 -34 -7z
m44 -38 c0 -5 -4 -10 -10 -10 -5 0 -10 5 -10 10 0 6 5 10 10 10 6 0 10 -4 10
-10z"/>
<path d="M3266 1758 c-39 -63 -22 -128 32 -128 56 0 98 78 68 125 -22 34 -79
35 -100 3z m68 6 c17 -7 22 -34 6 -34 -5 0 -10 5 -10 10 0 16 -18 12 -39 -9
-24 -24 -17 -59 13 -71 l21 -9 -21 0 c-48 -2 -56 52 -14 97 23 25 22 24 44 16z
m-14 -65 c0 -10 -4 -19 -10 -19 -5 0 -10 12 -10 26 0 14 4 23 10 19 6 -3 10
-15 10 -26z"/>
<path d="M3170 1750 c0 -5 5 -10 10 -10 6 0 10 5 10 10 0 6 -4 10 -10 10 -5 0
-10 -4 -10 -10z"/>
<path d="M3175 1720 c-3 -5 -1 -10 4 -10 6 0 11 5 11 10 0 6 -2 10 -4 10 -3 0
-8 -4 -11 -10z"/>
<path d="M3210 1720 c0 -5 5 -10 10 -10 6 0 10 5 10 10 0 6 -4 10 -10 10 -5 0
-10 -4 -10 -10z"/>
<path d="M3170 1685 c0 -8 5 -15 10 -15 6 0 10 7 10 15 0 8 -4 15 -10 15 -5 0
-10 -7 -10 -15z"/>
<path d="M3217 1693 c-4 -3 -7 -11 -7 -17 0 -6 5 -5 12 2 6 6 9 14 7 17 -3 3
-9 2 -12 -2z"/>
<path d="M3170 1650 c0 -5 5 -10 10 -10 6 0 10 5 10 10 0 6 -4 10 -10 10 -5 0
-10 -4 -10 -10z"/>
<path d="M3200 1640 c0 -5 5 -10 10 -10 6 0 10 5 10 10 0 6 -4 10 -10 10 -5 0
-10 -4 -10 -10z"/>
<path d="M2175 2790 c-16 -17 -24 -30 -19 -30 5 0 15 9 22 21 8 12 19 18 28
15 8 -3 14 -1 14 4 0 21 -19 17 -45 -10z"/>
<path d="M2288 2797 c-21 -12 -38 -26 -38 -30 0 -5 16 1 35 13 l35 22 -6 -34
c-4 -27 -3 -30 6 -15 6 10 10 28 8 41 l-3 24 -37 -21z"/>
<path d="M2100 2803 c-1 -5 -12 -21 -26 -38 l-24 -30 -20 25 -20 25 -25 -28
c-14 -15 -25 -35 -25 -43 0 -19 -18 -18 -62 6 l-37 20 -12 -21 c-18 -35 -14
-120 10 -166 11 -23 21 -44 21 -47 0 -3 -17 -8 -37 -12 -20 -4 -78 -35 -129
-70 -51 -34 -95 -59 -99 -56 -4 4 -5 2 -3 -3 1 -6 -14 -29 -36 -50 -21 -22
-77 -85 -124 -140 -131 -153 -163 -184 -181 -178 -12 4 -13 3 -3 -4 10 -8 9
-13 -4 -24 -9 -8 -19 -13 -21 -11 -1 1 -9 2 -15 2 -9 0 -8 -4 2 -10 12 -7 -3
-26 -75 -96 -103 -99 -132 -116 -183 -112 -33 3 -40 8 -62 53 -21 42 -25 62
-23 131 1 45 9 119 17 164 31 163 22 190 -66 190 -46 0 -128 -32 -128 -50 0
-6 16 -2 38 8 50 26 97 33 128 22 25 -10 26 -12 22 -78 -3 -37 -13 -109 -22
-161 -21 -111 -12 -191 28 -251 28 -42 66 -54 126 -37 40 11 265 231 389 382
154 186 299 311 409 351 69 25 74 35 46 91 -24 47 -32 125 -15 151 7 11 17 10
52 -8 24 -13 44 -19 46 -14 8 24 44 74 53 74 6 0 13 -7 16 -15 10 -24 37 -17
59 14 14 21 23 27 31 20 9 -8 11 -5 7 10 -5 20 -23 30 -23 14z"/>
<path d="M2365 2738 c-16 -10 -25 -18 -20 -18 6 0 16 4 24 9 10 7 19 4 28 -7
13 -18 16 -7 5 19 -6 14 -10 14 -37 -3z"/>
<path d="M2181 2670 c-2 -36 -6 -74 -10 -85 -5 -11 -6 13 -3 54 4 54 2 72 -7
67 -6 -4 -11 -33 -11 -68 0 -69 -8 -69 -30 -1 -8 26 -21 49 -29 51 -14 5 -14
3 5 -128 l5 -35 -25 40 c-14 21 -28 52 -32 68 -4 19 -11 27 -22 25 -21 -4 -18
-39 7 -115 17 -50 17 -51 0 -42 -17 9 -68 71 -95 115 -7 11 -15 16 -19 12 -10
-9 41 -132 62 -149 12 -10 0 -17 -69 -40 -165 -54 -245 -118 -472 -376 -91
-104 -188 -208 -217 -233 -122 -104 -208 -160 -248 -160 -33 0 -107 79 -122
130 -12 42 -18 335 -8 400 4 22 1 25 -26 22 -39 -4 -102 -48 -121 -84 -19 -37
-34 -27 -34 23 0 34 -12 53 -22 32 -2 -5 -21 -20 -44 -35 -24 -15 -50 -44 -62
-68 -12 -26 -33 -48 -53 -58 -46 -23 -90 -93 -97 -151 -3 -25 -11 -50 -19 -55
-28 -16 -51 -84 -42 -124 6 -24 5 -47 -2 -64 -6 -15 -8 -43 -5 -61 5 -27 17
-39 69 -70 116 -67 234 -97 390 -97 172 0 430 -30 565 -65 80 -21 115 -14 42
8 -81 25 -185 46 -265 53 -65 6 -72 9 -97 42 -17 22 -28 29 -28 19 0 -8 7 -22
15 -31 23 -23 18 -32 -6 -10 -54 48 -67 148 -26 194 12 14 19 21 16 15 -14
-22 -21 -75 -10 -75 6 0 11 10 11 23 0 12 8 34 17 47 10 14 16 26 15 28 -2 2
31 25 71 51 41 27 120 93 177 147 102 98 102 98 70 46 -18 -29 -30 -55 -27
-58 8 -8 66 73 89 123 42 93 249 316 358 385 64 41 146 73 210 82 135 20 152
31 120 72 -13 17 -11 16 10 -1 14 -11 31 -28 38 -37 21 -28 45 -21 89 25 47
48 83 118 82 162 0 26 -4 21 -32 -36 -32 -66 -85 -144 -93 -136 -3 2 16 41 42
86 27 49 48 100 51 124 l4 42 -23 -40 -22 -40 -7 30 c-6 27 -7 28 -8 5 -1 -14
-4 -36 -8 -50 -6 -21 -9 -15 -19 35 l-11 60 -2 -65z m-146 -198 c11 -6 14 -12
8 -12 -7 0 -25 12 -41 28 -15 15 -19 20 -7 11 11 -9 29 -21 40 -27z m-1215
-312 c-5 -25 -9 -97 -10 -160 0 -178 35 -280 114 -332 l33 -22 -16 -48 c-9
-26 -19 -48 -23 -48 -41 0 -238 400 -238 484 0 36 46 122 76 143 23 17 62 32
71 29 1 -1 -3 -21 -7 -46z m-178 -88 c9 -42 28 -109 43 -147 73 -184 212 -424
237 -409 7 4 8 2 4 -4 -4 -7 0 -22 8 -34 76 -109 -166 91 -262 216 -55 71
-128 210 -138 261 -4 20 -2 54 5 74 11 40 65 121 79 121 5 0 16 -35 24 -78z
m-135 -80 c2 -55 38 -141 95 -229 70 -108 126 -171 225 -256 65 -55 80 -73 66
-75 -61 -9 -290 132 -388 240 -58 63 -105 153 -105 199 0 41 43 120 78 141 15
9 27 17 27 17 0 1 1 -16 2 -37z m-28 -331 c42 -50 119 -110 224 -174 l62 -39
-45 7 c-149 24 -367 165 -372 242 -3 48 1 77 13 100 11 21 13 20 45 -33 19
-31 51 -77 73 -103z m-75 -76 c62 -51 155 -103 225 -127 55 -19 61 -23 38 -26
-16 -2 -69 8 -118 22 -124 36 -219 97 -219 141 0 43 11 41 74 -10z"/>
<path d="M3671 2643 c-1 -38 -6 -124 -11 -193 -5 -69 -14 -234 -21 -368 -11
-212 -10 -267 5 -251 3 4 27 435 41 752 3 72 2 127 -3 127 -5 0 -10 -30 -11
-67z"/>
<path d="M2360 2621 c-27 -59 -45 -78 -28 -31 16 49 1 48 -21 -1 -26 -60 -78
-129 -97 -129 -31 0 -7 -25 32 -33 100 -22 211 -51 236 -64 15 -7 29 -9 32 -4
8 12 -57 36 -167 64 l-86 22 40 50 c48 60 91 141 87 163 -2 8 -14 -8 -28 -37z"/>
<path d="M3317 2590 c-92 -20 -117 -40 -160 -129 -26 -54 -30 -74 -29 -131 3
-93 19 -133 69 -169 61 -44 108 -61 173 -61 83 0 159 26 197 67 63 69 82 239
36 330 -15 30 -33 45 -83 70 -85 41 -110 44 -203 23z m192 -34 c78 -37 61 -42
-96 -27 -82 8 -150 16 -152 18 -19 15 109 44 164 36 22 -3 60 -15 84 -27z
m-301 -138 c-45 -150 -47 -155 -59 -137 -16 26 -9 94 17 149 22 48 69 120 78
120 2 0 -14 -60 -36 -132z m83 -56 c6 -42 15 -99 18 -125 l8 -48 -51 6 c-102
13 -102 15 -57 158 16 51 33 110 37 132 l7 40 13 -43 c7 -24 18 -78 25 -120z
m176 147 c43 -7 79 -13 81 -14 6 -5 -194 -278 -208 -283 -8 -3 -11 15 -30 178
-6 58 -16 107 -21 108 -5 2 -9 8 -9 13 0 12 93 11 187 -2z m143 -92 c11 -55 6
-92 -23 -170 -15 -42 -52 -95 -60 -87 -4 4 31 216 48 288 9 37 23 25 35 -31z
m-54 16 c-20 -66 -34 -136 -30 -147 7 -18 -25 -126 -36 -126 -5 0 -7 8 -4 18
5 13 4 14 -4 3 -7 -10 -22 -12 -58 -7 -27 3 -52 10 -56 14 -8 8 30 64 111 163
24 30 48 64 54 77 12 26 31 30 23 5z m-187 -268 c127 -21 137 -29 54 -44 -60
-10 -76 -10 -119 5 -27 9 -60 25 -73 35 l-24 19 34 0 c19 0 76 -7 128 -15z"/>
<path d="M2910 2560 c0 -5 9 -10 19 -10 11 0 23 5 26 10 4 6 -5 10 -19 10 -14
0 -26 -4 -26 -10z"/>
<path d="M628 2251 c-49 -19 -102 -59 -127 -93 -25 -37 -2 -30 33 10 20 22 59
50 88 62 50 21 52 22 66 4 13 -18 13 -18 10 5 -4 32 -14 34 -70 12z"/>
<path d="M424 2078 c-57 -51 -119 -198 -83 -198 6 0 9 6 6 13 -6 17 30 106 60
145 14 18 36 38 49 44 13 6 24 15 24 20 0 16 -20 8 -56 -24z"/>
<path d="M2970 1855 c-6 -15 -39 -56 -74 -91 -49 -49 -66 -74 -76 -111 -7 -26
-28 -77 -47 -112 -19 -35 -32 -65 -29 -68 12 -13 96 170 96 210 0 8 10 19 23
26 12 7 39 33 60 58 l37 44 0 -96 c0 -95 1 -97 31 -126 17 -15 46 -31 64 -35
52 -9 60 -26 29 -58 -35 -34 -41 -33 -36 8 4 30 0 36 -28 51 -39 20 -72 14
-136 -27 -27 -18 -74 -42 -104 -55 -41 -17 -48 -23 -30 -23 14 0 65 23 113 50
91 52 134 61 161 34 19 -18 20 -36 5 -51 -13 -13 -4 -33 15 -33 6 0 27 15 45
34 35 36 36 62 4 72 -44 14 -94 38 -104 51 -17 20 -22 170 -8 220 13 49 5 71
-11 28z"/>
<path d="M301 1839 c-23 -38 -31 -75 -30 -134 1 -22 -3 -60 -9 -85 l-11 -45
58 -56 c73 -69 174 -123 282 -149 70 -17 118 -20 295 -20 211 0 296 -10 438
-51 l40 -11 -52 -48 c-56 -52 -60 -61 -36 -84 19 -20 45 -20 91 -1 44 19 49
19 34 1 -9 -11 -10 -20 -1 -35 17 -33 51 -45 118 -43 37 2 62 -1 62 -8 0 -5
12 -10 28 -10 46 0 71 -11 75 -34 3 -19 4 -19 12 -3 4 11 3 23 -3 29 -13 13
-82 27 -179 36 -77 7 -111 27 -100 57 10 24 69 45 129 45 l53 1 -33 30 c-39
35 -49 34 -144 -23 -49 -29 -75 -39 -99 -36 -18 2 -34 8 -36 14 -2 6 20 34 49
62 l53 51 -39 16 c-100 42 -213 56 -461 60 -206 2 -250 5 -311 23 -108 31
-192 80 -279 164 -28 28 -29 29 -16 71 12 40 13 52 10 123 0 17 9 50 21 73 26
52 19 67 -9 20z m1254 -629 c4 -7 -2 -9 -19 -4 -14 3 -40 1 -57 -5 -46 -16
-47 -6 -2 17 38 20 63 17 78 -8z"/>
<path d="M1036 1648 c-9 -12 -16 -36 -16 -53 l1 -30 13 35 c7 19 17 43 21 53
10 24 -1 21 -19 -5z"/>
<path d="M1032 1456 c6 -14 17 -27 24 -30 12 -4 11 0 -1 24 -19 36 -40 41 -23
6z"/>
<path d="M1410 1436 c0 -8 14 -24 30 -36 22 -16 30 -18 30 -8 0 8 -13 24 -30
36 -23 17 -30 19 -30 8z"/>
<path d="M400 1416 c0 -2 8 -10 18 -17 15 -13 16 -12 3 4 -13 16 -21 21 -21
13z"/>
<path d="M776 1291 c-9 -13 157 -164 251 -228 390 -266 857 -359 1313 -261
176 37 420 129 420 158 0 6 5 8 11 4 6 -3 14 -3 18 2 3 5 28 19 55 32 26 13
46 26 42 29 -3 3 -1 12 5 20 16 19 1 16 -37 -8 -19 -11 -31 -26 -28 -31 4 -6
2 -8 -3 -5 -6 4 -57 -15 -115 -43 -231 -110 -454 -160 -717 -160 -439 0 -798
139 -1134 439 -73 65 -73 65 -81 52z"/>
<path d="M1285 1250 c-3 -5 -1 -10 4 -10 6 0 11 5 11 10 0 6 -2 10 -4 10 -3 0
-8 -4 -11 -10z"/>
<path d="M3174 1139 c56 -44 25 -53 -173 -50 -132 2 -159 0 -188 -16 -18 -9
-33 -21 -33 -25 0 -5 -13 -8 -28 -8 -15 0 -33 -5 -39 -11 -16 -16 -253 -1
-253 16 0 17 -49 25 -109 18 -36 -4 -51 -10 -51 -21 0 -11 -13 -14 -70 -10
-61 3 -70 2 -72 -15 -3 -18 -16 -19 -222 -17 -121 0 -223 3 -227 6 -4 2 -10 0
-14 -6 -4 -7 44 -10 143 -10 82 0 190 -3 240 -6 89 -7 92 -6 92 15 0 19 5 21
70 21 56 0 70 3 70 15 0 12 14 15 70 15 53 0 68 -3 64 -13 -4 -10 26 -16 126
-25 115 -11 133 -11 153 3 12 8 32 15 44 15 13 0 23 5 23 10 0 6 6 10 14 10 7
0 19 7 26 15 8 10 29 15 64 14 28 -1 43 -3 34 -6 -22 -6 -24 -23 -3 -23 9 0
18 7 21 15 5 13 22 14 98 10 99 -7 144 1 160 29 9 14 6 21 -13 37 -13 10 -28
19 -33 19 -6 0 1 -9 16 -21z"/>
<path d="M2335 1135 c-19 -16 -19 -16 14 -11 18 3 76 6 129 6 52 0 93 2 91 4
-2 2 -51 6 -109 10 -89 6 -108 4 -125 -9z"/>
<path d="M1765 1111 c-95 -12 -3 -22 172 -20 153 2 204 10 150 22 -31 7 -262
6 -322 -2z"/>
<path d="M1880 1069 c-27 -5 -22 -6 25 -7 33 0 74 4 90 8 24 6 18 8 -25 6 -30
0 -71 -4 -90 -7z"/>
<path d="M2073 1063 c9 -2 25 -2 35 0 9 3 1 5 -18 5 -19 0 -27 -2 -17 -5z"/>
<path d="M1948 1033 c17 -2 47 -2 65 0 17 2 3 4 -33 4 -36 0 -50 -2 -32 -4z"/>
<path d="M1900 521 c0 -89 4 -152 10 -156 7 -4 10 48 10 149 0 97 -4 156 -10
156 -6 0 -10 -56 -10 -149z"/>
<path d="M1661 516 c-1 -89 3 -147 9 -151 6 -4 10 20 10 69 l0 75 78 4 77 3
-77 2 -78 2 0 65 0 64 88 4 87 3 -96 2 -96 2 -2 -144z"/>
<path d="M2230 611 c0 -20 -6 -31 -17 -34 -17 -4 -17 -5 0 -6 15 -1 17 -12 17
-80 0 -97 10 -127 44 -133 14 -3 26 -2 26 3 0 4 -10 9 -22 11 -22 3 -23 8 -26
100 l-3 97 28 4 28 4 -27 2 c-24 1 -28 5 -28 31 0 17 -4 30 -10 30 -5 0 -10
-13 -10 -29z"/>
<path d="M2371 617 c-1 -19 -8 -31 -23 -37 l-23 -9 23 0 c21 -1 22 -4 22 -93
0 -51 4 -98 8 -104 11 -16 37 -23 53 -13 10 6 7 9 -12 9 -34 0 -39 14 -39 116
l0 84 28 1 27 1 -25 7 c-17 5 -27 16 -31 36 l-7 30 -1 -28z"/>
<path d="M2521 574 c-25 -18 -51 -71 -51 -105 0 -31 30 -88 53 -100 30 -17 87
-13 106 6 15 16 15 17 -6 6 -60 -31 -133 7 -133 69 l0 30 80 0 80 0 0 28 c-1
64 -76 103 -129 66z m78 -9 c24 -12 40 -39 41 -67 0 -5 -34 -8 -75 -8 -67 0
-75 2 -75 19 0 19 52 71 71 71 6 0 23 -7 38 -15z"/>
<path d="M2753 578 c-13 -6 -23 -15 -23 -21 0 -5 5 -5 13 1 7 6 24 16 38 21
13 5 17 10 9 10 -8 0 -25 -5 -37 -11z"/>
<path d="M1992 495 c-2 -113 9 -135 72 -135 23 0 48 6 54 12 10 10 15 10 22
-2 6 -10 9 25 8 100 l-2 115 -5 -93 c-7 -104 -18 -122 -77 -122 -47 0 -58 21
-65 124 l-5 91 -2 -90z"/>
<path d="M2700 476 c0 -132 17 -150 22 -24 3 101 1 128 -13 128 -5 0 -9 -47
-9 -104z"/>
<path d="M1335 340 l-39 -40 35 -36 c35 -35 36 -35 112 -32 l78 3 -74 73 -73
72 -39 -40z"/>
</g>
</svg>
